<?xml version="1.0" encoding="utf-8"?>
<!-- Generator: Adobe Illustrator 24.3.0, SVG Export Plug-In . SVG Version: 6.00 Build 0)  -->
<svg version="1.1" id="Layer_1" xmlns="http://www.w3.org/2000/svg" xmlns:xlink="http://www.w3.org/1999/xlink" x="0px" y="0px"
	 viewBox="0 0 8192 6000" style="enable-background:new 0 0 8192 6000;" xml:space="preserve">
<style type="text/css">
	.st0{opacity:0.45;}
	.st1{fill:#F4F4F4;}
	.st2{fill:#F1978C;}
	.st3{fill:#37456D;}
	.st4{fill:#1F1271;}
	.st5{fill:#273556;}
	.st6{fill:url(#SVGID_1_);}
	.st7{fill:url(#SVGID_2_);}
	.st8{fill:#F8F8FA;}
	.st9{fill:url(#SVGID_3_);}
	.st10{fill:url(#SVGID_4_);}
	.st11{fill:url(#SVGID_5_);}
	.st12{fill:url(#SVGID_6_);}
	.st13{fill:#465383;}
	.st14{fill:#D1D1D1;}
	.st15{fill:#BABABA;}
	.st16{fill:url(#SVGID_7_);}
	.st17{fill:url(#SVGID_8_);}
	.st18{fill:url(#SVGID_9_);}
	.st19{fill:#342E89;}
	.st20{fill:url(#SVGID_10_);}
	.st21{fill:url(#SVGID_11_);}
	.st22{fill:url(#SVGID_12_);}
	.st23{fill:url(#SVGID_13_);}
	.st24{fill:url(#SVGID_14_);}
	.st25{fill:url(#SVGID_15_);}
	.st26{fill:url(#SVGID_16_);}
	.st27{fill:#4F5E7F;}
	.st28{fill:#050044;}
	.st29{fill:url(#SVGID_17_);}
	.st30{fill:url(#SVGID_18_);}
	.st31{fill:url(#SVGID_19_);}
	.st32{fill:url(#SVGID_20_);}
	.st33{fill:url(#SVGID_21_);}
	.st34{fill:url(#SVGID_22_);}
	.st35{fill:url(#SVGID_23_);}
	.st36{fill:#DDDDDD;}
	.st37{fill:#3F8EFC;}
	.st38{fill:#0059C3;}
</style>
<g class="st0">
	<path class="st1" d="M1168.5,5409.4l6078.6-61.2c0,0,531-1819.4-524.7-1970.3S5701.8,1472.1,4557.2,1461.4
		c-1144.5-10.7-440,1145.2-1153.4,1318.2s-1362.7-232.9-1921.5,213.1S1168.5,5409.4,1168.5,5409.4z"/>
</g>
<g class="st0">
	<path class="st1" d="M1973.7,5408l4489.9-45.1c0,0,392.2-1343.9-387.6-1455.4c-779.9-111.4-753.8-1407.7-1599.3-1415.7
		c-845.4-7.9-324.9,846-852,973.7s-1006.5-172-1419.3,157.4S1973.7,5408,1973.7,5408z"/>
</g>
<g>
	<g>
		<path class="st1" d="M2731.2,3299.5h-569.5c-6,0-10.9-4.9-10.9-10.9v-512.3c0-6,4.9-10.9,10.9-10.9h569.5c6,0,10.9,4.9,10.9,10.9
			v512.3C2742.1,3294.5,2737.2,3299.5,2731.2,3299.5z"/>
	</g>
	<g>
		<path class="st1" d="M2711.5,2642h-569.5c-6,0-10.9-4.9-10.9-10.9v-512.3c0-6,4.9-10.9,10.9-10.9h569.5c6,0,10.9,4.9,10.9,10.9
			v512.3C2722.4,2637.1,2717.5,2642,2711.5,2642z"/>
	</g>
	<g>
		<path class="st1" d="M2699,1980.2h-569.5c-6,0-10.9-4.9-10.9-10.9V1457c0-6,4.9-10.9,10.9-10.9H2699c6,0,10.9,4.9,10.9,10.9v512.3
			C2709.9,1975.3,2705,1980.2,2699,1980.2z"/>
	</g>
	<g>
		<path class="st1" d="M3424.3,3312.2h-569.5c-6,0-10.9-4.9-10.9-10.9V2789c0-6,4.9-10.9,10.9-10.9h569.5c6,0,10.9,4.9,10.9,10.9
			v512.3C3435.2,3307.3,3430.3,3312.2,3424.3,3312.2z"/>
	</g>
	<g>
		<path class="st1" d="M3404.6,2654.8h-569.5c-6,0-10.9-4.9-10.9-10.9v-512.3c0-6,4.9-10.9,10.9-10.9h569.5c6,0,10.9,4.9,10.9,10.9
			v512.3C3415.5,2649.8,3410.6,2654.8,3404.6,2654.8z"/>
	</g>
	<g>
		<path class="st1" d="M3392,1992.9h-569.4c-6,0-10.9-4.9-10.9-10.9v-512.3c0-6,4.9-10.9,10.9-10.9h569.5c6,0,10.9,4.9,10.9,10.9
			V1982C3403,1988,3398,1992.9,3392,1992.9z"/>
	</g>
</g>
<g>
	<g>
		<path class="st1" d="M5745,3337.6h-569.5c-6,0-10.9-4.9-10.9-10.9v-512.3c0-6,4.9-10.9,10.9-10.9H5745c6,0,10.9,4.9,10.9,10.9
			v512.3C5756,3332.7,5751.1,3337.6,5745,3337.6z"/>
	</g>
	<g>
		<path class="st1" d="M5725.4,2680.1h-569.5c-6,0-10.9-4.9-10.9-10.9V2157c0-6,4.9-10.9,10.9-10.9h569.5c6,0,10.9,4.9,10.9,10.9
			v512.3C5736.3,2675.2,5731.4,2680.1,5725.4,2680.1z"/>
	</g>
	<g>
		<path class="st1" d="M5712.9,2018.3h-569.5c-6,0-10.9-4.9-10.9-10.9v-512.3c0-6,4.9-10.9,10.9-10.9h569.5c6,0,10.9,4.9,10.9,10.9
			v512.3C5723.8,2013.4,5718.9,2018.3,5712.9,2018.3z"/>
	</g>
	<g>
		<path class="st1" d="M6438.2,3350.3h-569.5c-6,0-10.9-4.9-10.9-10.9v-512.3c0-6,4.9-10.9,10.9-10.9h569.5c6,0,10.9,4.9,10.9,10.9
			v512.3C6449.1,3345.4,6444.2,3350.3,6438.2,3350.3z"/>
	</g>
	<g>
		<path class="st1" d="M6418.4,2692.9h-569.5c-6,0-10.9-4.9-10.9-10.9v-512.3c0-6,4.9-10.9,10.9-10.9h569.5c6,0,10.9,4.9,10.9,10.9
			V2682C6429.4,2688,6424.4,2692.9,6418.4,2692.9z"/>
	</g>
	<g>
		<path class="st1" d="M6406,2031.1h-569.5c-6,0-10.9-4.9-10.9-10.9v-512.3c0-6,4.9-10.9,10.9-10.9H6406c6,0,10.9,4.9,10.9,10.9
			v512.3C6416.9,2026.2,6412,2031.1,6406,2031.1z"/>
	</g>
</g>
<g>
	<g>
		<g>
			<polygon class="st2" points="5509.3,2224.5 5502.4,2416.4 5371.4,2484.5 5298.7,2447.3 5316.2,2410.2 5357.6,2249.2 			"/>
		</g>
		<g>
			<path class="st2" d="M5217.8,2127.1c2,138.4,80.2,214.3,141,205.7c101.7-14.2,185.1-176.2,185.1-176.2
				c30.9-23.1,30.5-185.9-100.7-217.6C5312.1,1907.2,5200.2,1985.6,5217.8,2127.1z"/>
		</g>
		<g>
			<path class="st3" d="M5136.9,1853.2c55.2,24.8,120.6,26.3,120.6,26.3c10.3-35.6,17.3-51.1,17.3-51.1c3.3,7.5,9.3,16.3,16.3,25.5
				c26.5,34.4,70.2,53.7,116.7,56c83.4,4.1,153.7,45.6,179.4,134.2c34.9,120.4-90,198.3-90,198.3l2.3-82.1l-74.4-66
				c0,0-20.2,25.4-49.6,17c-29.4-8.4-26.4-71.5-26.4-71.5s-25.8,10.6-59,16.3c-12.4,4.1-28.7,5.6-49.9,3.1c-0.5-0.1-0.8-0.2-1.2-0.2
				c-14.6-1.1-28.9-4.2-42-10.4c-8.1-3.8-15.1-9.3-21.2-15.7C5110,1976.6,5136.9,1853.2,5136.9,1853.2z"/>
		</g>
		<g>
			<ellipse class="st2" cx="5469.9" cy="2120.6" rx="75" ry="67.3"/>
		</g>
		<g>
			<g>
				<path class="st4" d="M5481.6,3399.5c-9.3,181.8-25.4,346-42.4,482.3c-30.8,249-64.3,405.1-64.3,405.1l-66.7,956.2l-158-3.2
					l-68.9-834c-15.6-294.2-9.8-589.4,16.5-882.6l13.2-149.8L5481.6,3399.5z"/>
			</g>
			<g>
				<path class="st5" d="M5439.1,3881.7c-30.8,249-64.3,405.1-64.3,405.1l-66.7,956.2H5277c0,0,16.7-852.8,49.1-979.9
					c32.3-127.1,40.3-341.4,40.3-341.4S5405.6,3861.4,5439.1,3881.7z"/>
			</g>
			<g>
				<path class="st4" d="M5741.1,3796.5c-0.4,2-0.4,3.6,0,5.9v1c-0.6,19.4-1,38.1-1.6,56.5c-7.9,275.3-29.9,451.9-29.9,451.9
					l14.7,970.3l-17.4,1.6l-135-15.1l-144.5-812.6c-41.1-292-61.4-586.3-60.8-880.9v-150.5l371.5-6.3
					C5743,3555.4,5743.4,3683.2,5741.1,3796.5z"/>
			</g>
			<g>
				<path class="st5" d="M5739.5,3859.9c-7.9,275.3-29.9,451.9-29.9,451.9l14.7,970.3l-17.4,1.6l-2.9-1.6c0,0-29.8-958.7-21.5-989
					C5689.3,4268.2,5726.7,3989.7,5739.5,3859.9z"/>
			</g>
			<g>
				<path class="st2" d="M4861.3,2378l13-51.2c0,0,70.8-39,76-61.8s-45.2-1-51.8-8.1s60.9-119.6,59.1-139.4
					c-1.8-19.8-87.7-24.1-152.5,82.5c-38.5,63.4-28.1,124.4-28.1,124.4l-6.2,45L4861.3,2378z"/>
			</g>
			<g>
				
					<linearGradient id="SVGID_1_" gradientUnits="userSpaceOnUse" x1="4755.7158" y1="3541.0867" x2="5352.2656" y2="3541.0867" gradientTransform="matrix(0.9102 0 0 -0.9102 281.5431 5951.52)">
					<stop  offset="4.019915e-03" style="stop-color:#0059C3"/>
					<stop  offset="1" style="stop-color:#3F8EFC"/>
				</linearGradient>
				<path class="st6" d="M5130.1,2783.6L4909.2,2887l-162.8,63.9c-14.7,10.2-32.2,15.1-49,15.1c-7.2,0-14.7-1-21.7-2.9
					c-18.4-4.6-35.5-15.1-47.6-31.2c-25.9-34.1-23.3-81.8,6.3-112.7l78.8-82.5c41.4-43.3,87.7-81.8,138-114.6l183.3-119.9
					c11.8-7.9,25.6-11.5,39-11.5c13.1,0,26.3,3.3,37.8,10.5c15.7,9.8,27.3,25.3,31.9,43.3c1.6,6.6,2.9,13.5,3.9,20.7
					C5153.6,2609.6,5162.3,2756.1,5130.1,2783.6z"/>
			</g>
			<g>
				
					<linearGradient id="SVGID_2_" gradientUnits="userSpaceOnUse" x1="4750.7832" y1="3634.6353" x2="5046.0874" y2="3634.6353" gradientTransform="matrix(0.9102 0 0 -0.9102 281.5431 5951.52)">
					<stop  offset="4.019915e-03" style="stop-color:#0059C3"/>
					<stop  offset="1" style="stop-color:#3F8EFC"/>
				</linearGradient>
				<path class="st7" d="M4675.7,2964.2L4675.7,2964.2c-51.2-12-81.4-64.8-65.8-115c0,0,29.3-204.5,161.8-523.1
					c10.3-24.7,102.9,29.5,102.9,29.5l-88.7,535.2C4777.2,2942.6,4726.7,2976.2,4675.7,2964.2z"/>
			</g>
			<g>
				<rect x="5214.5" y="2480.4" class="st8" width="402.7" height="989.5"/>
			</g>
			<g>
				<polygon class="st3" points="5358.9,2457.7 5459.1,2457.7 5470.2,2509.8 5446.3,2548.5 5371.8,2548.5 5348.5,2513.6 				"/>
			</g>
			<g>
				<polygon class="st4" points="5371.8,2548.5 5310,3308.4 5402,3398.8 5500,3312.8 5446.3,2548.5 				"/>
			</g>
			<g>
				<path class="st8" d="M5413.4,2455.1l-48.1,43.4l-39.1,35.2l-16.8,14.8c0,0-16-74.1-17.1-129.4c-1.1-22.9,0.7-42.3,7.5-52.2
					l11.6,8.8L5413.4,2455.1z"/>
			</g>
			<g>
				
					<linearGradient id="SVGID_3_" gradientUnits="userSpaceOnUse" x1="5571.125" y1="3244.3584" x2="6054.3877" y2="3244.3584" gradientTransform="matrix(0.9102 0 0 -0.9102 281.5431 5951.52)">
					<stop  offset="4.019915e-03" style="stop-color:#0059C3"/>
					<stop  offset="1" style="stop-color:#3F8EFC"/>
				</linearGradient>
				<path class="st9" d="M5792.4,3540c0,0-6.9,2-18.8,4.6c-50,13.1-190.5,45.3-286.4,30.6c-24.7-3.6-47-24.3-66.4-57.4
					c-3.3-5.6-6.3-11.8-9.6-18.4c-66-136.6-86-430.6-9.6-660.8c45.3-135.6,75.9-236.2,94.9-304.8c22.3-79.2,30.2-116,30.2-116
					l3.6,1.3l44.7,14.1l217.1,70.6c0,0-14.7,39.4-23,179.3C5761.2,2831.2,5760.3,3092.7,5792.4,3540z"/>
			</g>
			<g>
				<path class="st8" d="M5409.5,2455.1l48.1,43.4l39.1,35.2l16.7,14.8c0,0,16-74.1,17.1-129.4c1.1-22.9-0.7-42.3-7.5-52.2
					l-11.6,8.8L5409.5,2455.1z"/>
			</g>
			<g>
				<path class="st4" d="M5598.1,2497l-42.9-39.1l32-9.2l-11.9-15.5l-52.2-66.3l-11.6,8.8c-21.2,21.1-39.1,67.4-54.1,122.7
					l39.1,35.2c-19,68.4-49.6,168.9-94.7,304.7C5508.3,2698.8,5598.1,2497,5598.1,2497z"/>
			</g>
			<g>
				
					<linearGradient id="SVGID_4_" gradientUnits="userSpaceOnUse" x1="5217.2876" y1="3244.5881" x2="5700.4268" y2="3244.5881" gradientTransform="matrix(0.9102 0 0 -0.9102 281.5431 5951.52)">
					<stop  offset="4.019915e-03" style="stop-color:#0059C3"/>
					<stop  offset="1" style="stop-color:#3F8EFC"/>
				</linearGradient>
				<path class="st10" d="M5344.1,3572.8c-2.6,1.3-5.6,2-8.6,2.3c-118.6,18-305.1-35.1-305.1-35.1c62.7-868.8,0-1036.3,0-1036.3
					l217.1-70.6l44.7-14.1l3.6-1.3c0,0,7.9,36.8,30.2,116c19,68.6,49.6,169.1,94.9,304.8c5.9,17.4,11.2,35.1,15.7,53.2
					c-0.4,0.4-0.4,0.4,0,0.4C5512.2,3181.3,5450.8,3539.7,5344.1,3572.8z"/>
			</g>
			<g>
				<path class="st4" d="M5224.8,2497l42.9-39.1l-32-9.2l11.9-15.5l52.2-66.3l11.6,8.8c21.2,21.1,39.1,67.4,54.1,122.7l-39.1,35.2
					c19,68.4,49.6,168.9,94.7,304.7C5314.6,2698.8,5224.8,2497,5224.8,2497z"/>
			</g>
			<g>
				
					<linearGradient id="SVGID_5_" gradientUnits="userSpaceOnUse" x1="5911.7061" y1="3438.9858" x2="6217.8057" y2="3438.9858" gradientTransform="matrix(0.9102 0 0 -0.9102 281.5431 5951.52)">
					<stop  offset="4.019915e-03" style="stop-color:#0059C3"/>
					<stop  offset="1" style="stop-color:#3F8EFC"/>
				</linearGradient>
				<path class="st11" d="M5842,2533.1c27.5,24.5,56.9,58.5,73.6,90.1c3.6,7.2,7.1,14.7,9.9,22.9c33.2,94.1,2.7,238.6,4.4,294
					l4.1,114c0.1,1.8,0,3.5-0.2,5.1c-0.6,40.8-29.8,75.5-70.1,83.2c-27.9,5.6-55.1-2.8-74.7-20.3c-12.7-11.4-22-26.7-26.6-44.2
					l-45.8-186.7l-53.4-253.8c-6.6-48.5,33.3-99.2,74-126.7c15.5-10.5,34-14.6,52.6-11.2C5801.8,2501.7,5821.1,2514.6,5842,2533.1z"
					/>
			</g>
			<g>
				
					<linearGradient id="SVGID_6_" gradientUnits="userSpaceOnUse" x1="5563.9878" y1="3042.509" x2="6209.6245" y2="3042.509" gradientTransform="matrix(0.9102 0 0 -0.9102 281.5431 5951.52)">
					<stop  offset="4.019915e-03" style="stop-color:#0059C3"/>
					<stop  offset="1" style="stop-color:#3F8EFC"/>
				</linearGradient>
				<path class="st12" d="M5920.5,3015.3c27.4,45,10.4,103.4-36.4,127.3c0,0-166.5,122-487.3,249.6c-9.2,3.6-18.8-8.4-26.7-25
					c-13.9-28.3-24.1-69.3-24.1-69.3l445.1-310.2c40.7-28.5,96.7-18.4,125.1,21.3C5917.8,3010.7,5919.4,3012.9,5920.5,3015.3z"/>
			</g>
		</g>
		<g>
			<polygon class="st4" points="5058.4,2657.4 5058.4,2818 4929.2,2875.5 			"/>
		</g>
		<g>
			<polygon class="st4" points="5718.3,2737.8 5724.1,3013.2 5629.4,3116.5 			"/>
		</g>
		<g>
			<path class="st4" d="M5333.8,2332.4c0,0,81.7,4.3,133.4-116.2c0,0-24.4,173.4-142,167.7L5333.8,2332.4z"/>
		</g>
		<g>
			<polygon class="st13" points="5158.8,5237.1 4960.8,5377.7 5287.9,5371.9 5308.2,5243.2 			"/>
		</g>
		<g>
			<polygon class="st13" points="5570.5,5256.8 5560.5,5357.6 5922.1,5351.8 5724.1,5234.1 			"/>
		</g>
	</g>
	<g>
		<polygon class="st14" points="5227.8,3035 5428.1,3650.2 5056.1,3745.6 4874.9,3135.1 		"/>
	</g>
	<g>
		<path class="st2" d="M5452.5,3274.5l-45.8,26.5c0,0-77.3-23.5-97.3-11.3s30.9,33,30.3,42.7c-0.5,9.6-128.1,40-141,55
			c-12.9,15,44,79.6,165.5,51.5c72.2-16.7,108.8-66.8,108.8-66.8l36.5-26.9L5452.5,3274.5z"/>
	</g>
</g>
<g>
	<g>
		<path class="st15" d="M4165,5385.9H3137.7c-6,0-10.9-4.9-10.9-10.9V4233.2c0-6,4.9-10.9,10.9-10.9H4165c6,0,10.9,4.9,10.9,10.9
			V5375C4175.9,5381,4171,5385.9,4165,5385.9z"/>
	</g>
	<g>
		<path class="st14" d="M3921.8,5387.4H2894.5c-6,0-10.9-4.9-10.9-10.9V4234.7c0-6,4.9-10.9,10.9-10.9h1027.3
			c6,0,10.9,4.9,10.9,10.9v1141.8C3932.7,5382.5,3927.8,5387.4,3921.8,5387.4z"/>
	</g>
	<g>
		<path class="st15" d="M3951.5,4839.8H2856.4c-6,0-10.9-4.9-10.9-10.9v-285.6c0-6,4.9-10.9,10.9-10.9h1095.1
			c6,0,10.9,4.9,10.9,10.9v285.6C3962.4,4834.9,3957.5,4839.8,3951.5,4839.8z"/>
	</g>
	<g>
		<path class="st15" d="M3265.5,4583.9h-916.2c-6,0-10.9-4.9-10.9-10.9V3520.3c0-6,4.9-10.9,10.9-10.9h916.3c6,0,10.9,4.9,10.9,10.9
			V4573C3276.4,4579,3271.5,4583.9,3265.5,4583.9z"/>
	</g>
	<g>
		<path class="st14" d="M3227.6,4581.5h-685.1c-6,0-10.9-4.9-10.9-10.9V3517.9c0-6,4.9-10.9,10.9-10.9h685.1c6,0,10.9,4.9,10.9,10.9
			v1052.7C3238.5,4576.6,3233.6,4581.5,3227.6,4581.5z"/>
	</g>
	<g>
		<g>
			<g>
				<path class="st4" d="M3341.3,4256.1c202.7-50.1,450.3-111.9,536.9-62.4c101.4,57.9-24.8,1002.5-24.8,1002.5l-148.5,24.8
					l-49.5-730.3l-272.2,61.9L3341.3,4256.1z"/>
			</g>
			<g>
				
					<linearGradient id="SVGID_7_" gradientUnits="userSpaceOnUse" x1="3271.4871" y1="2470.1992" x2="3816.4441" y2="2470.1992" gradientTransform="matrix(0.9102 0 0 -0.9102 281.5431 5951.52)">
					<stop  offset="4.019915e-03" style="stop-color:#0059C3"/>
					<stop  offset="1" style="stop-color:#3F8EFC"/>
				</linearGradient>
				<path class="st16" d="M3754.5,3537.8c-2.6,2.6-6.5,24.1-12.4,56.8c-21.7,119.1-71.6,387-198.1,425.9
					c-160.9,49.5-222.8-123.8-222.8-123.8l-61.9-519.8c111.4,86.7,247.6,371.3,247.6,371.3l104.6-199.6l31.6-60.3
					C3643.2,3488.2,3766.9,3525.4,3754.5,3537.8z"/>
			</g>
			<g>
				
					<linearGradient id="SVGID_8_" gradientUnits="userSpaceOnUse" x1="2646.0874" y1="2305.1367" x2="3414.0098" y2="2305.1367" gradientTransform="matrix(0.9102 0 0 -0.9102 281.5431 5951.52)">
					<stop  offset="4.019915e-03" style="stop-color:#0059C3"/>
					<stop  offset="1" style="stop-color:#3F8EFC"/>
				</linearGradient>
				<path class="st17" d="M3346.1,4404.1h-606.5c0-86.7,24.8-222.8,24.8-482.7s-74.3-495.1-74.3-495.1l171.8-81.8l33.4-15.9l54.7-26
					h185.7l136.2,86.7c0,0,37.1,61.9,111.4,297C3408,4045.2,3346.1,4404.1,3346.1,4404.1z"/>
			</g>
			<g>
				
					<linearGradient id="SVGID_9_" gradientUnits="userSpaceOnUse" x1="2510.1387" y1="2369.5371" x2="3135.5874" y2="2369.5371" gradientTransform="matrix(0.9102 0 0 -0.9102 281.5431 5951.52)">
					<stop  offset="4.019915e-03" style="stop-color:#0059C3"/>
					<stop  offset="1" style="stop-color:#3F8EFC"/>
				</linearGradient>
				<path class="st18" d="M3135.6,4020.5c0,0-23.4,12-60.5,29.1c-122.7,56.4-395.7,167.8-471.7,82.3
					c-99-111.4,24.8-680.8,86.7-705.5c0,0,37.1,37.1,61.9,136.2s24.8,346.5,24.8,346.5l266.1-29.6l68.1-7.6L3135.6,4020.5z"/>
			</g>
			<g>
				<path class="st4" d="M3754.5,3537.8c-2.6,2.6-6.5,24.1-12.4,56.8l-130.6-46.1l31.6-60.3
					C3643.2,3488.2,3766.9,3525.4,3754.5,3537.8z"/>
			</g>
			<g>
				<path class="st4" d="M3135.6,4020.5c0,0-23.4,12-60.5,29.1l-32.3-170l68.1-7.6L3135.6,4020.5z"/>
			</g>
			<g>
				<path class="st2" d="M3113.3,3886.6c0,0,71.8-39.5,121.3-27.1c49.5,12.4,99,61.9,86.7,99c-12.4,37.1-99,12.4-99,12.4l-89.4,32.8
					L3113.3,3886.6z"/>
			</g>
			<g>
				<path class="st2" d="M3657.1,3492.6c0,0,10.7-227.1,85-202.3c74.3,24.8,74.3,122.4,0,234.5L3657.1,3492.6z"/>
			</g>
			<g>
				<path class="st3" d="M2951.6,3302.6l153.6,99c0,0-64,37.1-89.6,99l-124.1-170.1L2951.6,3302.6z"/>
			</g>
			<g>
				<path class="st4" d="M2999.5,3612v-74.3l-61.9,12.4l-75.7-205.6l33.4-15.9c77.6,141.6,240.4,246.3,240.4,246.3l24.8,111.4
					L2999.5,3612z"/>
			</g>
			<g>
				<path class="st4" d="M3161.7,3319.7c0,0,22.6,206.5-26,255.2l24.8,106.2l86.7-118.6l-49.5-37.1l61.9-12.4l-55.5-166.9
					L3161.7,3319.7z"/>
			</g>
			<g>
				<path class="st3" d="M3084.2,3405l-35,28.5l25,60.4l59.3-9.9v-73.4C3133.6,3410.8,3103.9,3395.1,3084.2,3405z"/>
			</g>
			<g>
				<path class="st3" d="M3071.9,3487.2l-14.2,33.2l76.4,75.9c0,0,47.1-71.2-0.4-113.9L3071.9,3487.2z"/>
			</g>
			<g>
				<path class="st19" d="M2739.6,4404.1c222.8-210.4,581.7-235.8,631.2-192.1c49.5,43.7,210.4,1009.1,210.4,1009.1l-148.5,49.5
					l-222.8-693.1C3209.9,4577.4,2739.6,4787.8,2739.6,4404.1z"/>
			</g>
			<g>
				<polygon class="st2" points="2961.4,3141.8 2967.6,3333.6 3085.2,3401.7 3150.4,3364.5 3134.6,3327.4 3097.6,3166.5 				"/>
			</g>
			<g>
				<path class="st2" d="M3223,3044.3c-1.8,138.4-72,214.3-126.5,205.7c-91.2-14.2-166.2-176.2-166.2-176.2
					c-27.7-23.1-27.4-185.9,90.3-217.6C3138.3,2824.4,3238.8,2902.8,3223,3044.3z"/>
			</g>
			<g>
				<path class="st3" d="M3295.6,2770.4c-49.5,24.8-108.3,26.3-108.3,26.3c-9.3-35.6-15.5-51.1-15.5-51.1c-3,7.5-8.3,16.3-14.7,25.5
					c-23.8,34.4-63,53.7-104.7,56c-74.8,4.1-138,45.6-161,134.2c-31.3,120.4,80.7,198.3,80.7,198.3l-2.1-82.1l66.8-66
					c0,0,18.1,25.4,44.5,17s23.7-71.5,23.7-71.5s23.1,10.6,52.9,16.3c11.1,4.1,25.7,5.6,44.8,3.1c0.4-0.1,0.7-0.2,1.1-0.2
					c13.1-1.1,26-4.2,37.7-10.4c7.3-3.8,13.6-9.3,19-15.7C3319.8,2893.9,3295.6,2770.4,3295.6,2770.4z"/>
			</g>
			<g>
				<circle class="st2" cx="2996.8" cy="3038" r="67.3"/>
			</g>
		</g>
		<g>
			<polygon class="st3" points="3086.2,3401.7 3171.6,3449.2 3162.1,3321 3131.8,3300.2 			"/>
		</g>
		<g>
			<path class="st3" d="M3005.5,3135.9c0,0,23.3,110.9,111.3,112.4l12,46C3128.8,3294.2,3005.5,3292.5,3005.5,3135.9z"/>
		</g>
		<g>
			<polygon class="st4" points="2763.3,3700.8 2763.3,3919.1 2924.7,3904.9 2801.3,3876.5 			"/>
		</g>
		<g>
			<polygon class="st4" points="3382.7,3709 3386.7,3996.8 3440.6,4022.8 			"/>
		</g>
		<g>
			<polygon class="st13" points="3451.8,5245.1 3456.5,5390.8 3803,5390.8 3559.8,5205.1 			"/>
		</g>
		<g>
			<polygon class="st13" points="3717.7,5201.1 3722.3,5314.8 4011.9,5338.5 3823.7,5181.1 			"/>
		</g>
	</g>
	<g>
		<path class="st15" d="M3306.7,5388.2H2279.3c-6,0-10.9-4.9-10.9-10.9V4235.5c0-6,4.9-10.9,10.9-10.9h1027.3
			c6,0,10.9,4.9,10.9,10.9v1141.8C3317.6,5383.3,3312.7,5388.2,3306.7,5388.2z"/>
	</g>
	<g>
		<path class="st14" d="M3063.4,5389.8h-823.9c-6,0-10.9-4.9-10.9-10.9V4237.2c0-6,4.9-10.9,10.9-10.9h823.9c6,0,10.9,4.9,10.9,10.9
			V5379C3074.4,5384.9,3069.5,5389.8,3063.4,5389.8z"/>
	</g>
</g>
<g>
	<g>
		<g>
			<polygon class="st4" points="1827.3,5145 1793.9,5397.8 1837.6,5395.3 1899.1,5152.1 			"/>
		</g>
		<g>
			<polygon class="st4" points="2060.9,5140.2 2096.7,5393 2049.9,5390.6 1983.8,5147.4 			"/>
		</g>
	</g>
	<g>
		<g>
			<path class="st4" d="M1722.2,4105.9c45.6,18.8,98.1,13.3,137.5-16.3c33-24.7,61-68.5,59.6-146.4c-3.2-184.4-441.9-165.3-546.9-89
				C1285.8,3917.4,1608.5,4059,1722.2,4105.9z"/>
		</g>
		<g>
			
				<linearGradient id="SVGID_10_" gradientUnits="userSpaceOnUse" x1="1888.6415" y1="2143.0422" x2="2416.0273" y2="2143.0422" gradientTransform="matrix(0.9102 0 0 -0.9102 281.5431 5951.52)">
				<stop  offset="4.019915e-03" style="stop-color:#0059C3"/>
				<stop  offset="1" style="stop-color:#3F8EFC"/>
			</linearGradient>
			<path class="st20" d="M2169.2,4148.8c-39,18.8-83.8,13.3-117.6-16.3c-28.1-24.7-52.2-68.5-51-146.4
				c2.7-184.4,377.7-165.3,467.5-89C2542.3,3960.4,2266.4,4101.9,2169.2,4148.8z"/>
		</g>
		<g>
			<path class="st4" d="M2111.1,3809.4c-28.3,22.2-65.7,25.7-98.4,7.6c-27.2-15-54.5-46.4-67.4-109.8
				c-30.5-150.2,277.3-201.3,363.7-155.2C2380.6,3590.2,2181.7,3754.1,2111.1,3809.4z"/>
		</g>
		<g>
			
				<linearGradient id="SVGID_11_" gradientUnits="userSpaceOnUse" x1="1383.8379" y1="2520.1943" x2="1783.8234" y2="2520.1943" gradientTransform="matrix(0.9102 0 0 -0.9102 281.5431 5951.52)">
				<stop  offset="4.019915e-03" style="stop-color:#0059C3"/>
				<stop  offset="1" style="stop-color:#3F8EFC"/>
			</linearGradient>
			<path class="st21" d="M1777.3,3780.5c29.6,15.7,63.6,11,89.2-13.6c21.3-20.5,39.6-57,38.7-121.6c-2.1-153.3-286.5-137.4-354.5-74
				C1494.3,3623.9,1703.6,3741.6,1777.3,3780.5z"/>
		</g>
		<g>
			<path class="st4" d="M2049.5,3505.9c-13.4,30-42.6,46.7-77.4,42.4c-29-3.5-65.4-21.6-104.1-73.3
				c-91.8-122.7,138.3-279.8,229.6-270.1C2173.2,3213,2082.9,3431.1,2049.5,3505.9z"/>
		</g>
		<g>
			
				<linearGradient id="SVGID_12_" gradientUnits="userSpaceOnUse" x1="1381.1874" y1="2004.4869" x2="1845.1875" y2="2004.4869" gradientTransform="matrix(0.9102 0 0 -0.9102 281.5431 5951.52)">
				<stop  offset="4.019915e-03" style="stop-color:#0059C3"/>
				<stop  offset="1" style="stop-color:#3F8EFC"/>
			</linearGradient>
			<path class="st22" d="M1951.1,4363.4l-21.5-231.3c-4.7-51.4-28-95.5-69.1-131.1c-33.1-28.7-77.9-52.1-133.2-69.3
				c-94.5-29.6-187.7-31.1-188.6-31.1l0.1-10.1c0.9,0,95.4,1.5,191.3,31.5c56.5,17.7,102.6,41.7,136.8,71.3
				c43.1,37.3,67.6,83.7,72.6,137.8l21.5,231.3L1951.1,4363.4z"/>
		</g>
		<g>
			
				<linearGradient id="SVGID_13_" gradientUnits="userSpaceOnUse" x1="1797.3875" y1="2182.7366" x2="2090.1875" y2="2182.7366" gradientTransform="matrix(0.9102 0 0 -0.9102 281.5431 5951.52)">
				<stop  offset="4.019915e-03" style="stop-color:#0059C3"/>
				<stop  offset="1" style="stop-color:#3F8EFC"/>
			</linearGradient>
			<path class="st23" d="M1927.7,4317.6h-10.1c0-2.5,0.5-253.1,38.2-446.8c20-102.5,80.1-167.5,127.1-203.9
				c50.8-39.4,96.2-54.4,98.1-55.1l3.1,9.6c-0.5,0.2-45.9,15.2-95.3,53.7c-45.4,35.3-103.7,98.3-123.1,197.6
				C1928.1,4065.5,1927.7,4315.1,1927.7,4317.6z"/>
		</g>
		<g>
			
				<linearGradient id="SVGID_14_" gradientUnits="userSpaceOnUse" x1="1529.9875" y1="2223.3367" x2="1839.0469" y2="2223.3367" gradientTransform="matrix(0.9102 0 0 -0.9102 281.5431 5951.52)">
				<stop  offset="4.019915e-03" style="stop-color:#0059C3"/>
				<stop  offset="1" style="stop-color:#3F8EFC"/>
			</linearGradient>
			<path class="st24" d="M1953.9,4274.9l-10-0.5c0.1-2.7,11.5-271.1-28.5-466.1c-16.5-80.6-62.1-141.7-135.4-181.7
				c-54.8-29.9-105.2-36-105.8-36l1.2-10c2.1,0.3,52.9,6.5,109.4,37.2c52.3,28.5,119.1,84.4,140.5,188.5
				C1965.4,4002.6,1954.1,4272.2,1953.9,4274.9z"/>
		</g>
		<g>
			
				<linearGradient id="SVGID_15_" gradientUnits="userSpaceOnUse" x1="1782.1875" y1="2002.762" x2="2199.0876" y2="2002.762" gradientTransform="matrix(0.9102 0 0 -0.9102 281.5431 5951.52)">
				<stop  offset="4.019915e-03" style="stop-color:#0059C3"/>
				<stop  offset="1" style="stop-color:#3F8EFC"/>
			</linearGradient>
			<path class="st25" d="M1913,4312.4l-9.3-3.9l81.1-190.8c42.7-100.3,121.6-141.9,180.2-159c63.4-18.6,116-13.5,118.1-13.3l-1,10
				c-0.5-0.1-53.1-5-114.7,13c-82.2,24.1-140.5,75.6-173.5,153.2L1913,4312.4z"/>
		</g>
		<g>
			
				<linearGradient id="SVGID_16_" gradientUnits="userSpaceOnUse" x1="1771.1875" y1="2330.4368" x2="1902.3877" y2="2330.4368" gradientTransform="matrix(0.9102 0 0 -0.9102 281.5431 5951.52)">
				<stop  offset="4.019915e-03" style="stop-color:#0059C3"/>
				<stop  offset="1" style="stop-color:#3F8EFC"/>
			</linearGradient>
			<path class="st26" d="M1903.8,4353.4l-10.1-0.1c0.1-4,4.9-400.9,16.7-620.1c11.8-220,92.6-424,93.4-426l9.4,3.7
				c-0.8,2-80.9,204.5-92.7,422.8C1908.7,3952.8,1903.9,4349.5,1903.8,4353.4z"/>
		</g>
	</g>
	<g>
		<path class="st4" d="M2114.4,5168.9h-340.6c-6,0-10.9-4.9-10.9-10.9v-919.2c0-6,4.9-10.9,10.9-10.9h340.6c6,0,10.9,4.9,10.9,10.9
			V5158C2125.4,5164,2120.5,5168.9,2114.4,5168.9z"/>
	</g>
</g>
<g>
	<rect x="2386.1" y="3979.9" class="st4" width="2136.5" height="69.9"/>
</g>
<g>
	<polygon class="st4" points="2840.6,3983.8 2513.2,5391.4 2068.1,5389.8 2387.6,3983.8 	"/>
</g>
<g>
	<polygon class="st4" points="4522.4,3979.9 4838.8,5383.4 4376.3,5388.2 4051.9,4043.4 	"/>
</g>
<g>
	<polygon class="st27" points="4051.9,4043.4 4342.9,4043.4 4147.3,4420.1 	"/>
</g>
<g>
	<polygon class="st28" points="4445.3,4034.6 4767.3,5385.1 4838.8,5383.4 4535.2,4035.5 	"/>
</g>
<g>
	<polygon class="st28" points="2824.8,4048.8 2735.8,4049.8 2427.4,5388.2 2513.2,5391.4 	"/>
</g>
<g>
	<path class="st3" d="M3770.6,3213.6l195.5,200.2c0,0,133.5-205.1,38.1-247.9C3908.9,3123.1,3770.6,3213.6,3770.6,3213.6z"/>
</g>
<g>
	<path class="st3" d="M4071,3236.1c0,0,205.4,255.2,241.8,247.6s15.4-22.8,5.6-31.8C4308.5,3443.1,4066.8,3190.4,4071,3236.1z"/>
</g>
<g>
	<path class="st3" d="M4369.9,3558.6c0,0-58.8,308.4-39.8,329c19.1,20.7,33.4,4.7,43-6.4C4382.5,3870.2,4420.8,3518.8,4369.9,3558.6
		z"/>
</g>
<g>
	<path class="st3" d="M4144.2,3987.8l4-7.1c22.1-39,63.3-63.2,108-63.7l113.9-1.4c50.2-0.6,95.8,28.6,116.3,74.4l1.2,2.5
		L4144.2,3987.8z"/>
</g>
<g>
	<circle class="st3" cx="4357.7" cy="3514.1" r="24.9"/>
</g>
<g>
	<g>
		<g>
			<polygon class="st3" points="6301.4,5111.5 6268,5364.2 6311.7,5361.8 6373.2,5118.6 			"/>
		</g>
		<g>
			<polygon class="st3" points="6535,5106.7 6570.8,5359.5 6524,5357.1 6457.9,5113.9 			"/>
		</g>
	</g>
	<g>
		<g>
			<path class="st4" d="M6196.3,4072.4c45.6,18.8,98.1,13.3,137.5-16.3c33-24.7,61-68.5,59.6-146.4c-3.2-184.4-441.9-165.3-546.9-89
				C5759.9,3883.9,6082.7,4025.5,6196.3,4072.4z"/>
		</g>
		<g>
			
				<linearGradient id="SVGID_17_" gradientUnits="userSpaceOnUse" x1="6804.0415" y1="2179.8425" x2="7331.4272" y2="2179.8425" gradientTransform="matrix(0.9102 0 0 -0.9102 281.5431 5951.52)">
				<stop  offset="4.019915e-03" style="stop-color:#0059C3"/>
				<stop  offset="1" style="stop-color:#3F8EFC"/>
			</linearGradient>
			<path class="st29" d="M6643.3,4115.3c-39,18.8-83.8,13.3-117.6-16.3c-28.1-24.7-52.2-68.5-51-146.4
				c2.7-184.4,377.7-165.3,467.5-89C7016.4,3926.8,6740.5,4068.4,6643.3,4115.3z"/>
		</g>
		<g>
			<path class="st4" d="M6585.2,3775.9c-28.3,22.2-65.7,25.7-98.4,7.6c-27.2-15-54.5-46.4-67.4-109.8
				c-30.5-150.2,277.3-201.3,363.7-155.2C6854.7,3556.6,6655.8,3720.5,6585.2,3775.9z"/>
		</g>
		<g>
			
				<linearGradient id="SVGID_18_" gradientUnits="userSpaceOnUse" x1="6299.2378" y1="2556.9944" x2="6699.2231" y2="2556.9944" gradientTransform="matrix(0.9102 0 0 -0.9102 281.5431 5951.52)">
				<stop  offset="4.019915e-03" style="stop-color:#0059C3"/>
				<stop  offset="1" style="stop-color:#3F8EFC"/>
			</linearGradient>
			<path class="st30" d="M6251.4,3747c29.6,15.7,63.6,11,89.2-13.6c21.3-20.5,39.6-57,38.7-121.6c-2.1-153.3-286.5-137.4-354.5-74
				C5968.4,3590.3,6177.7,3708,6251.4,3747z"/>
		</g>
		<g>
			<path class="st4" d="M6523.6,3472.4c-13.4,30-42.6,46.7-77.4,42.4c-29-3.5-65.4-21.6-104.1-73.3
				c-91.8-122.7,138.3-279.8,229.6-270.1C6647.4,3179.5,6557,3397.6,6523.6,3472.4z"/>
		</g>
		<g>
			
				<linearGradient id="SVGID_19_" gradientUnits="userSpaceOnUse" x1="6296.5874" y1="2041.3868" x2="6760.5874" y2="2041.3868" gradientTransform="matrix(0.9102 0 0 -0.9102 281.5431 5951.52)">
				<stop  offset="4.019915e-03" style="stop-color:#0059C3"/>
				<stop  offset="1" style="stop-color:#3F8EFC"/>
			</linearGradient>
			<path class="st31" d="M6425.2,4329.8l-21.5-231.3c-4.7-51.4-28-95.5-69.1-131.1c-33.1-28.7-77.9-52.1-133.2-69.3
				c-94.5-29.6-187.7-31.1-188.6-31.1l0.1-10.1c0.9,0,95.4,1.5,191.3,31.5c56.5,17.7,102.6,41.7,136.8,71.3
				c43.1,37.3,67.6,83.7,72.6,137.8l21.5,231.3L6425.2,4329.8z"/>
		</g>
		<g>
			
				<linearGradient id="SVGID_20_" gradientUnits="userSpaceOnUse" x1="6712.7876" y1="2219.5369" x2="7005.5874" y2="2219.5369" gradientTransform="matrix(0.9102 0 0 -0.9102 281.5431 5951.52)">
				<stop  offset="4.019915e-03" style="stop-color:#0059C3"/>
				<stop  offset="1" style="stop-color:#3F8EFC"/>
			</linearGradient>
			<path class="st32" d="M6401.8,4284.1h-10.1c0-2.5,0.5-253.1,38.2-446.8c20-102.5,80.1-167.5,127.1-203.9
				c50.8-39.4,96.2-54.4,98.1-55.1l3.1,9.6c-0.5,0.2-45.9,15.2-95.3,53.7c-45.4,35.3-103.7,98.3-123.1,197.6
				C6402.2,4032,6401.8,4281.6,6401.8,4284.1z"/>
		</g>
		<g>
			
				<linearGradient id="SVGID_21_" gradientUnits="userSpaceOnUse" x1="6445.3877" y1="2260.137" x2="6754.4468" y2="2260.137" gradientTransform="matrix(0.9102 0 0 -0.9102 281.5431 5951.52)">
				<stop  offset="4.019915e-03" style="stop-color:#0059C3"/>
				<stop  offset="1" style="stop-color:#3F8EFC"/>
			</linearGradient>
			<path class="st33" d="M6428,4241.5l-10-0.5c0.1-2.7,11.5-271.1-28.5-466.1c-16.5-80.6-62.1-141.7-135.4-181.7
				c-54.8-29.9-105.2-36-105.8-36l1.2-10c2.1,0.3,52.9,6.5,109.4,37.2c52.3,28.5,119.2,84.4,140.5,188.5
				C6439.5,3969.1,6428.2,4238.7,6428,4241.5z"/>
		</g>
		<g>
			
				<linearGradient id="SVGID_22_" gradientUnits="userSpaceOnUse" x1="6697.5874" y1="2039.5839" x2="7114.4873" y2="2039.5839" gradientTransform="matrix(0.9102 0 0 -0.9102 281.5431 5951.52)">
				<stop  offset="4.019915e-03" style="stop-color:#0059C3"/>
				<stop  offset="1" style="stop-color:#3F8EFC"/>
			</linearGradient>
			<path class="st34" d="M6387.1,4279l-9.3-3.9l81.1-190.8c42.7-100.3,121.6-141.9,180.2-159c63.4-18.6,116-13.6,118.1-13.3l-1,10
				c-0.5-0.1-53.1-5-114.7,13c-82.2,24.1-140.5,75.6-173.5,153.2L6387.1,4279z"/>
		</g>
		<g>
			
				<linearGradient id="SVGID_23_" gradientUnits="userSpaceOnUse" x1="6686.5874" y1="2367.2366" x2="6817.7871" y2="2367.2366" gradientTransform="matrix(0.9102 0 0 -0.9102 281.5431 5951.52)">
				<stop  offset="4.019915e-03" style="stop-color:#0059C3"/>
				<stop  offset="1" style="stop-color:#3F8EFC"/>
			</linearGradient>
			<path class="st35" d="M6377.9,4319.9l-10.1-0.1c0.1-4,4.9-400.9,16.7-620.1c11.8-220,92.6-424,93.4-426l9.4,3.7
				c-0.8,2-80.9,204.5-92.7,422.8C6382.8,3919.3,6378,4316,6377.9,4319.9z"/>
		</g>
	</g>
	<g>
		<path class="st4" d="M6588.6,5135.4h-340.6c-6,0-10.9-4.9-10.9-10.9v-919.2c0-6,4.9-10.9,10.9-10.9h340.6c6,0,10.9,4.9,10.9,10.9
			v919.2C6599.5,5130.5,6594.6,5135.4,6588.6,5135.4z"/>
	</g>
</g>
<g>
	
		<rect x="1443.4" y="2534.8" transform="matrix(0.7071 -0.7071 0.7071 0.7071 -1401.2379 1839.3916)" class="st3" width="152.6" height="152.6"/>
</g>
<g>
	
		<rect x="3940.4" y="2865" transform="matrix(0.7071 -0.7071 0.7071 0.7071 -903.3492 3701.749)" class="st3" width="152.6" height="152.6"/>
</g>
<g>
	
		<rect x="4320.9" y="1485.5" transform="matrix(0.7071 -0.7071 0.7071 0.7071 183.5642 3566.7341)" class="st3" width="152.6" height="152.6"/>
</g>
<g>
	
		<rect x="3813.2" y="2315.6" transform="matrix(0.7071 -0.7071 0.7071 0.7071 -552.1132 3450.9106)" class="st36" width="152.6" height="152.6"/>
</g>
<g>
	
		<rect x="6336.8" y="1851.1" transform="matrix(0.7071 -0.7071 0.7071 0.7071 515.4229 5099.2725)" class="st36" width="152.6" height="152.6"/>
</g>
<g>
	
		<rect x="1357.8" y="3055" transform="matrix(0.7071 -0.7071 0.7071 0.7071 -1794.1023 1931.2297)" class="st36" width="152.6" height="152.6"/>
</g>
<g>
	
		<rect x="5908.8" y="4688.2" transform="matrix(0.7071 -0.7071 0.7071 0.7071 -1616.0564 5627.6279)" class="st36" width="152.6" height="152.6"/>
</g>
<g>
	
		<rect x="4656" y="3799.3" transform="matrix(0.7071 -0.7071 0.7071 0.7071 -1354.4418 4481.3872)" class="st36" width="152.6" height="152.6"/>
</g>
<g>
	
		<rect x="1384.6" y="4791.3" transform="matrix(0.7071 -0.7071 0.7071 0.7071 -3014.0032 2458.6975)" class="st36" width="152.6" height="152.6"/>
</g>
<g>
	
		<rect x="6627.6" y="2547.5" transform="matrix(0.7071 -0.7071 0.7071 0.7071 108.2379 5508.8691)" class="st3" width="152.6" height="152.6"/>
</g>
<g>
	
		<rect x="7174.5" y="4523.2" transform="matrix(0.7071 -0.7071 0.7071 0.7071 -1128.6268 6474.2798)" class="st3" width="152.6" height="152.6"/>
</g>
<rect x="-1390.5" y="567.7" class="st37" width="519.2" height="679.6"/>
<rect x="-1390.5" y="1496.9" class="st38" width="519.2" height="679.6"/>
<rect x="-1390.5" y="-340.9" class="st4" width="519.2" height="679.6"/>
</svg>
